# This file uses centimeters as units for non-parametric coordinates.

mtllib igloo dome.mtl
g default
v -2.682111 -0.000000 0.279484
v 2.682112 -0.000000 0.279484
v -2.682112 -0.000000 -5.737357
v 2.682112 -0.000000 -5.737357
v -2.682112 5.017153 0.279485
v 2.682112 5.017153 0.279485
v 2.682112 5.017153 -5.737357
v -2.682112 5.017153 -5.737357
v -4.897492 0.000000 11.698240
v -3.463049 0.000000 12.798927
v -1.792607 0.000000 13.490848
v -0.000000 0.000000 13.726849
v 1.792607 0.000000 13.490848
v 3.463049 0.000000 12.798929
v 4.897491 0.000000 11.698240
v -5.998178 0.000000 10.263799
v -4.016891 0.000000 10.817640
v -2.050386 0.000000 11.105443
v 0.000000 0.000000 11.268272
v 2.050386 0.000000 11.105443
v 4.016892 0.000000 10.817640
v 5.998178 0.000000 10.263800
v -6.690098 0.000000 8.593355
v -4.304693 0.000000 8.851135
v -2.155042 0.000000 8.955791
v 0.000000 0.000000 9.015796
v 2.155042 0.000000 8.955791
v 4.304693 0.000000 8.851135
v 6.690098 0.000000 8.593356
v -6.926099 0.000000 6.800749
v -4.467523 0.000000 6.800749
v -2.215045 0.000000 6.800749
v 0.000000 0.000000 6.800749
v 2.215046 0.000000 6.800749
v 4.467523 0.000000 6.800749
v 6.926099 0.000000 6.800750
v -6.690097 0.000000 5.008142
v -4.304693 0.000000 4.750363
v -2.155042 0.000000 4.645707
v 0.000000 0.000000 4.585704
v 2.155042 0.000000 4.645707
v 4.304693 0.000000 4.750363
v 6.690098 0.000000 5.008143
v -5.998178 0.000000 3.337699
v -4.016891 0.000000 2.783858
v -2.050386 0.000000 2.496056
v 0.000000 0.000000 2.333227
v 2.050386 0.000000 2.496056
v 4.016891 0.000000 2.783858
v 5.998178 0.000000 3.337701
v -4.897491 0.000000 1.903257
v -3.463049 0.000000 0.802571
v 0.000000 -0.000000 0.279484
v 3.463049 0.000000 0.802571
v 4.897492 0.000000 1.903258
v -0.000000 -0.000000 -5.737357
v -1.858221 9.820173 8.636146
v -1.326602 9.820173 9.094054
v -2.239297 9.820173 8.047011
v -2.438959 9.820174 7.374379
v -2.441031 9.820174 6.672742
v -2.245345 9.820175 5.998943
v -1.867755 9.820175 5.407568
v -1.338850 9.820176 4.946528
v -0.701479 9.820176 4.653173
v 0.687511 9.820177 4.649072
v 1.326603 9.820177 4.938657
v 1.858221 9.820177 5.396566
v 2.239298 9.820177 5.985700
v 2.438959 9.820177 6.658332
v 2.441031 9.820176 7.359969
v 2.245345 9.820176 8.033769
v 1.867755 9.820175 8.625143
v 1.338850 9.820174 9.086184
v 0.701479 9.820174 9.379539
v 0.007279 9.820173 9.481442
v -0.687511 9.820173 9.383640
v -4.897492 5.400920 11.698241
v -4.482465 7.447586 11.322532
v -3.352484 8.928202 10.299599
v -3.463050 5.405950 12.798927
v -3.167467 7.451602 12.326564
v -2.361941 8.937294 11.039272
v -5.998178 5.395360 10.263799
v -5.494392 7.442787 10.011906
v -4.124378 8.916975 9.326899
v -1.792607 5.410071 13.490849
v -1.638847 7.454524 12.956806
v -1.219568 8.943534 11.500552
v -0.000000 5.412971 13.726850
v -0.000000 7.456123 13.171283
v -0.000000 8.946412 11.656019
v 1.792607 5.410071 13.490849
v 1.638847 7.454524 12.956806
v 1.219568 8.943534 11.500552
v 3.463049 5.405951 12.798928
v 3.167467 7.451602 12.326565
v 2.361941 8.937294 11.039273
v 4.897491 5.400920 11.698241
v 4.482464 7.447586 11.322532
v 3.352483 8.928202 10.299599
v 5.998178 5.395360 10.263800
v 5.494392 7.442787 10.011907
v 4.124377 8.916975 9.326900
v -6.690099 5.389675 8.593355
v -6.133817 7.437565 8.482879
v -4.623062 8.904467 8.182844
v 6.690099 5.389675 8.593356
v 6.133817 7.437565 8.482880
v 4.623062 8.904467 8.182845
v -6.926099 5.384266 6.800749
v -6.356196 7.432295 6.838925
v -4.810584 8.891581 6.942462
v 6.926099 5.384266 6.800750
v 6.356196 7.432295 6.838926
v 4.810584 8.891581 6.942462
v -6.690098 5.379499 5.008142
v -6.145194 7.427337 5.191938
v -4.669348 8.879201 5.689741
v 6.690099 5.379499 5.008143
v 6.145195 7.427337 5.191939
v 4.669349 8.879201 5.689741
v -5.998178 5.375676 3.337700
v -5.514113 7.423010 3.654617
v -4.204615 8.868125 4.511946
v 5.998178 5.375676 3.337701
v 5.514114 7.423010 3.654618
v 4.204616 8.868125 4.511947
v -4.897491 5.373026 1.903257
v -4.505261 7.419581 2.332646
v -3.445251 8.859030 3.493075
v 4.897492 5.373026 1.903258
v 4.505261 7.419581 2.332647
v 3.445252 8.859030 3.493076
v -3.405412 5.347196 0.763965
v -3.167101 7.415686 1.315336
v -2.425123 8.870668 2.739368
v 3.405412 5.347196 0.763965
v 3.167101 7.415686 1.315336
v 2.425123 8.870668 2.739368
v 0.000000 5.017153 0.279485
v 0.000000 5.017153 -5.737357
v 0.000000 5.347196 0.763965
v 0.000000 7.415686 1.315336
v 0.000000 8.870668 2.739368
v -0.007279 9.820177 4.551269
v -0.000000 9.820175 7.016356
v 2.046928 9.820176 7.327654
vt 0.000000 0.000000
vt 1.000000 0.000000
vt 0.000000 1.000000
vt 0.000010 0.000001
vt 1.000000 1.000000
vt 0.000002 0.000000
vt 0.999998 0.000000
vt 1.000000 1.000000
vt 0.000000 1.000000
vt 0.000000 0.000000
vt 0.166667 0.000000
vt 0.166667 0.166667
vt 0.000000 0.166667
vt 0.333333 0.000000
vt 0.333333 0.166667
vt 0.500000 0.000000
vt 0.500000 0.166667
vt 0.666667 0.000000
vt 0.666667 0.166667
vt 0.833333 0.000000
vt 0.833333 0.166667
vt 1.000000 0.166667
vt 0.166667 0.333333
vt 0.000000 0.333333
vt 0.333333 0.333333
vt 0.500000 0.333333
vt 0.666667 0.333333
vt 0.833333 0.333333
vt 1.000000 0.333333
vt 0.166667 0.500000
vt 0.000000 0.500000
vt 0.333333 0.500000
vt 0.500000 0.500000
vt 0.666667 0.500000
vt 0.833333 0.500000
vt 1.000000 0.500000
vt 0.166667 0.666667
vt 0.000000 0.666667
vt 0.333333 0.666667
vt 0.500000 0.666667
vt 0.666667 0.666667
vt 0.833333 0.666667
vt 1.000000 0.666667
vt 0.166667 0.833333
vt 0.000000 0.833333
vt 0.333333 0.833333
vt 0.500000 0.833333
vt 0.666667 0.833333
vt 0.833333 0.833333
vt 1.000000 0.833333
vt 0.166667 1.000000
vt 0.000000 1.000000
vt 0.311853 1.020922
vt 0.500000 1.008662
vt 0.688147 1.020922
vt 0.833333 1.000000
vt 1.000000 1.000000
vt 0.500000 0.000001
vt 0.500000 1.000000
vt 0.000000 0.000000
vt 1.000000 0.000000
vt 0.000000 0.695194
vt 1.000000 0.000000
vt 0.000000 0.694547
vt 0.000000 0.000000
vt 1.000000 0.000000
vt 0.000000 0.695723
vt 0.000000 0.000000
vt 1.000000 0.000000
vt 0.000000 0.696097
vt 0.000000 0.000000
vt 1.000000 0.000000
vt 0.000000 0.695724
vt 0.000000 0.000000
vt 1.000000 0.000000
vt 0.000000 0.695194
vt 0.000000 0.000000
vt 1.000000 0.000000
vt 0.000000 0.694548
vt 0.000000 0.000000
vt 1.000000 0.000000
vt 0.000000 0.693832
vt 0.000000 0.000000
vt 1.000000 0.000000
vt 0.000000 0.693832
vt 0.000000 0.000000
vt 1.000000 0.000000
vt 0.000000 0.693101
vt 0.000000 0.000000
vt 1.000000 0.000000
vt 0.000000 0.693101
vt 0.000000 0.000000
vt 1.000000 0.000000
vt 0.000000 0.692406
vt 0.000000 0.000000
vt 1.000000 0.000000
vt 0.000000 0.692406
vt 0.000000 0.000000
vt 1.000000 0.000000
vt 0.000000 0.691792
vt 0.000000 0.000000
vt 1.000000 0.000000
vt 0.000000 0.691792
vt 0.000000 0.000000
vt 1.000000 0.000000
vt 0.000000 0.691301
vt 0.000000 0.000000
vt 1.000000 0.000000
vt 0.000000 0.691300
vt 0.000000 0.000000
vt 1.000000 0.000000
vt 0.000000 0.690960
vt 0.000000 0.000000
vt 1.000000 0.000000
vt 0.000000 0.690960
vt 0.000000 0.000000
vt 0.999978 0.000002
vt 0.999945 0.635953
vt 0.073806 0.686955
vt 0.000022 0.000002
vt 1.000000 0.000000
vt 0.926194 0.686955
vt 0.000054 0.635953
vt 0.000000 0.000000
vt 1.000000 0.000000
vt 0.000010 0.662280
vt 0.000006 0.000028
vt 0.999997 0.000014
vt -0.045598 0.147373
vt 0.000000 1.000000
vt 0.000000 1.000000
vt 0.000000 1.000000
vt 0.000000 1.000000
vt 0.000000 1.000000
vt 0.000000 1.000000
vt 0.000000 1.000000
vt 0.000000 1.000000
vt 0.000000 1.000000
vt 0.000000 1.000000
vt 0.000000 1.000000
vt 0.000000 1.000000
vt -0.000000 1.000000
vt 0.000000 1.000000
vt -0.343966 1.111380
vt -0.343966 1.111380
vt 0.000015 0.999999
vt 0.000015 0.999999
vt 0.000000 1.000000
vt 0.000000 1.000000
vt 0.000000 1.000000
vt 0.000000 1.000000
vt 0.000000 1.000000
vt 0.000000 1.000000
vt 0.000000 1.000000
vt 0.000000 1.000000
vt 0.000000 1.000000
vt 0.000000 1.000000
vt 0.000000 1.000000
vt 0.000000 1.000000
vt 0.000000 1.000000
vt 0.000000 1.000000
vt 0.000000 1.000000
vt 0.000000 1.000000
vt 0.000000 1.000000
vt 0.000000 1.000000
vt 0.000000 1.000000
vt 0.000000 1.000000
vt 0.000000 1.000000
vt 0.000000 1.000000
vt 0.000000 1.000000
vt 0.000000 1.000000
vt 1.000000 0.694547
vt 1.000000 0.695194
vt 1.000000 0.693832
vt 1.000000 0.695724
vt 1.000000 0.696097
vt 1.000000 0.695724
vt 1.000000 0.695194
vt 1.000000 0.694547
vt 1.000000 0.693832
vt 1.000000 0.693101
vt 1.000000 0.693101
vt 1.000000 0.692406
vt 1.000000 0.692406
vt 1.000000 0.691792
vt 1.000000 0.691792
vt 1.000000 0.691301
vt 1.000000 0.691301
vt 1.000000 0.690960
vt 1.000000 0.690960
vt 0.999989 0.699156
vt 1.074437 0.240498
vt 0.000000 1.000000
vt 0.000000 1.000000
vt 1.000000 1.000000
vt 0.000000 1.000000
vt 1.000000 1.000000
vt 0.000000 1.000000
vt 0.000000 1.000000
vt 0.000000 1.000000
vt 1.000000 1.000000
vt 0.000000 1.000000
vt 1.000000 1.000000
vt 0.000000 1.000000
vt 0.000000 1.000000
vt 1.000000 1.000000
vt 0.000000 1.000000
vt 0.000000 1.000000
vt 1.000000 1.000000
vt 0.000000 1.000000
vt 0.000000 1.000000
vt 1.000000 1.000000
vt 0.000000 1.000000
vt 0.000000 1.000000
vt 1.000000 1.000000
vt 0.000000 1.000000
vt 0.000000 1.000000
vt 1.000000 1.000000
vt 0.000000 1.000000
vt 0.000000 1.000000
vt 0.000000 1.000000
vt 1.000000 1.000000
vt 0.000000 1.000000
vt 1.000000 1.000000
vt 0.000000 1.000000
vt 0.000000 1.000000
vt 0.000000 1.000000
vt 1.000000 1.000000
vt 0.000000 1.000000
vt 1.000000 1.000000
vt 0.000000 1.000000
vt 0.000000 1.000000
vt 0.000000 1.000000
vt 1.000000 1.000000
vt 0.000000 1.000000
vt 1.000000 1.000000
vt 0.000000 1.000000
vt 0.000000 1.000000
vt 0.000000 1.000000
vt 1.000000 1.000000
vt 0.000000 1.000000
vt 1.000000 1.000000
vt 0.000000 1.000000
vt 0.000000 1.000000
vt 0.000000 1.000000
vt 1.000000 1.000000
vt 0.000000 1.000000
vt 1.000000 1.000000
vt 0.000000 1.000000
vt -0.343966 1.111380
vt -0.343966 1.111380
vt 0.999985 0.999999
vt 0.000015 0.999999
vt 1.343989 1.111310
vt 0.000015 0.999999
vt 0.500001 0.000021
vt 0.500000 0.000000
vt 0.500000 1.000000
vt 0.514419 0.193936
vt -0.171975 1.055689
vt 0.500011 1.111345
vt -0.171975 1.055689
vt -0.171975 1.055689
vt -0.085988 1.027845
vt -0.013655 1.004422
vn 0.000000 -1.000000 -0.000000
vn 0.000000 -1.000000 -0.000000
vn 0.000000 -1.000000 -0.000000
vn 0.000000 -1.000000 -0.000000
vn -1.000000 0.000000 -0.000000
vn -0.683085 0.730339 -0.000000
vn -1.000000 0.000000 -0.000000
vn -0.683085 0.730339 -0.000000
vn 0.000000 1.000000 0.000000
vn 0.000000 1.000000 0.000000
vn 0.000000 1.000000 0.000000
vn 0.000000 1.000000 0.000000
vn 0.000000 1.000000 0.000000
vn 0.000000 1.000000 0.000000
vn 0.000000 1.000000 0.000000
vn 0.000000 1.000000 0.000000
vn 0.000000 1.000000 0.000000
vn 0.000000 1.000000 0.000000
vn 0.000000 1.000000 0.000000
vn 0.000000 1.000000 0.000000
vn 0.000000 1.000000 0.000000
vn 0.000000 1.000000 0.000000
vn 0.000000 1.000000 0.000000
vn 0.000000 1.000000 0.000000
vn 0.000000 1.000000 0.000000
vn 0.000000 1.000000 0.000000
vn 0.000000 1.000000 0.000000
vn 0.000000 1.000000 0.000000
vn 0.000000 1.000000 0.000000
vn 0.000000 1.000000 0.000000
vn 0.000000 1.000000 0.000000
vn 0.000000 1.000000 0.000000
vn 0.000000 1.000000 0.000000
vn 0.000000 1.000000 0.000000
vn 0.000000 1.000000 0.000000
vn 0.000000 1.000000 0.000000
vn 0.000000 1.000000 0.000000
vn 0.000000 1.000000 0.000000
vn 0.000000 1.000000 0.000000
vn 0.000000 1.000000 0.000000
vn 0.000000 1.000000 0.000000
vn 0.000000 1.000000 0.000000
vn 0.000000 1.000000 0.000000
vn 0.000000 1.000000 -0.000000
vn 0.000000 1.000000 0.000000
vn 0.000000 1.000000 -0.000000
vn 0.000000 1.000000 -0.000000
vn -0.000000 1.000000 -0.000000
vn -0.000000 1.000000 -0.000000
vn 0.000000 1.000000 0.000000
vn 0.000000 1.000000 -0.000000
vn 0.000000 1.000000 0.000000
vn 0.000000 1.000000 -0.000000
vn 0.000000 1.000000 -0.000000
vn -0.000000 1.000000 -0.000000
vn -0.000000 1.000000 -0.000000
vn 0.000000 1.000000 0.000000
vn 0.499952 0.000000 -0.866053
vn 0.707061 0.000000 -0.707153
vn 0.705305 -0.071365 -0.705303
vn 0.498729 -0.071024 -0.863843
vn 0.865991 0.000000 -0.500060
vn 0.863794 -0.071824 -0.498700
vn 0.258778 0.000000 -0.965937
vn 0.258148 -0.070830 -0.963505
vn 0.000000 0.000000 -1.000000
vn 0.000000 -0.070852 -0.997487
vn -0.258777 0.000000 -0.965937
vn -0.258148 -0.070830 -0.963506
vn -0.499952 -0.000000 -0.866053
vn -0.498729 -0.071024 -0.863843
vn -0.707061 0.000000 -0.707152
vn -0.705305 -0.071365 -0.705303
vn -0.865991 0.000000 -0.500060
vn -0.863794 -0.071825 -0.498700
vn 0.965908 0.000000 -0.258884
vn 0.963398 -0.072364 -0.258124
vn -0.965908 0.000000 -0.258885
vn -0.963398 -0.072364 -0.258125
vn 1.000000 0.000000 -0.000062
vn 0.997336 -0.072945 0.000021
vn -1.000000 0.000000 -0.000062
vn -0.997336 -0.072945 0.000021
vn 0.965939 0.000000 0.258768
vn 0.963305 -0.073525 0.258142
vn -0.965939 0.000000 0.258768
vn -0.963305 -0.073525 0.258141
vn 0.866045 -0.000000 0.499966
vn 0.863634 -0.074067 0.498649
vn -0.866045 0.000000 0.499966
vn -0.863634 -0.074067 0.498649
vn 0.705912 -0.000208 0.708299
vn 0.703386 -0.075537 0.706784
vn -0.705912 -0.000208 0.708299
vn -0.703386 -0.075537 0.706783
vn 0.591711 -0.000278 0.806151
vn 0.595247 -0.057830 0.801459
vn 0.556512 -0.000000 0.830840
vn 0.556512 -0.000000 0.830840
vn -0.556512 -0.000000 0.830840
vn -0.591711 -0.000278 0.806150
vn -0.595247 -0.057830 0.801459
vn -0.556512 -0.000000 0.830840
vn 0.000000 -0.826453 0.563006
vn 0.000000 -0.826452 0.563006
vn 0.000000 -0.826452 0.563006
vn 0.000000 -0.826453 0.563006
vn 0.290746 -0.814209 -0.502524
vn 0.409245 -0.816210 -0.407823
vn 0.272081 -0.928702 -0.251962
vn 0.193990 -0.928380 -0.316984
vn 0.497967 -0.818809 -0.285623
vn 0.329088 -0.929168 -0.168371
vn 0.550985 -0.821798 -0.145134
vn 0.360895 -0.929755 -0.072876
vn 0.565196 -0.824950 0.003383
vn 0.365477 -0.930426 0.027097
vn 0.540377 -0.828041 0.149472
vn 0.342953 -0.931131 0.124008
vn 0.478989 -0.830866 0.283251
vn 0.295446 -0.931814 0.210797
vn 0.385991 -0.831919 0.398650
vn 0.227646 -0.932642 0.279923
vn 0.134401 -0.799720 0.585137
vn 0.074155 -0.911546 0.404456
vn 0.000098 -0.780533 0.625115
vn 0.000347 -0.893528 0.449008
vn -0.134326 -0.799668 0.585224
vn -0.385798 -0.831937 0.398800
vn -0.226784 -0.932674 0.280515
vn -0.073054 -0.911262 0.405297
vn -0.478838 -0.830886 0.283449
vn -0.294771 -0.931839 0.211626
vn -0.540284 -0.828060 0.149701
vn -0.342526 -0.931155 0.125003
vn -0.565168 -0.824968 0.003626
vn -0.365340 -0.930448 0.028184
vn -0.551024 -0.821814 -0.144895
vn -0.361067 -0.929773 -0.071780
vn -0.498068 -0.818823 -0.285406
vn -0.329563 -0.929183 -0.167355
vn -0.409401 -0.816221 -0.407645
vn -0.272827 -0.928713 -0.251112
vn -0.290944 -0.814216 -0.502398
vn -0.194951 -0.928387 -0.316372
vn -0.151096 -0.812977 -0.562352
vn -0.101846 -0.928212 -0.357840
vn -0.000117 -0.812690 -0.582696
vn -0.000574 -0.928169 -0.372158
vn 0.150872 -0.812973 -0.562417
vn 0.100746 -0.928209 -0.358160
vn 0.680897 -0.263418 -0.683367
vn 0.481417 -0.262520 -0.836254
vn 0.493431 -0.716737 -0.492762
vn 0.350143 -0.714425 -0.605803
vn 0.249207 -0.262105 -0.932307
vn 0.181598 -0.713064 -0.677172
vn 0.601463 -0.719794 -0.346611
vn 0.834047 -0.264718 -0.484035
vn 0.000000 -0.262029 -0.965060
vn 0.000000 -0.712636 -0.701534
vn -0.249207 -0.262105 -0.932307
vn -0.181598 -0.713064 -0.677172
vn -0.481417 -0.262520 -0.836254
vn -0.350143 -0.714425 -0.605803
vn -0.680897 -0.263419 -0.683367
vn -0.493431 -0.716736 -0.492762
vn -0.834047 -0.264718 -0.484035
vn -0.601463 -0.719794 -0.346611
vn -0.930411 -0.266312 -0.251818
vn -0.667112 -0.723344 -0.178146
vn 0.667112 -0.723344 -0.178146
vn 0.930411 -0.266312 -0.251818
vn -0.963394 -0.268079 -0.002528
vn -0.686518 -0.727113 0.000564
vn 0.686518 -0.727113 0.000564
vn 0.963394 -0.268079 -0.002528
vn -0.930713 -0.269894 0.246842
vn -0.659164 -0.730836 0.177147
vn 0.659164 -0.730836 0.177147
vn 0.930713 -0.269894 0.246842
vn -0.834568 -0.271640 0.479279
vn -0.587689 -0.734274 0.339798
vn 0.587689 -0.734274 0.339797
vn 0.834568 -0.271640 0.479279
vn -0.677920 -0.273371 0.682417
vn -0.474459 -0.737734 0.480247
vn 0.474459 -0.737734 0.480246
vn 0.677920 -0.273371 0.682417
vn -0.581450 -0.271855 0.766819
vn -0.084262 -0.510886 0.855509
vn 0.084262 -0.510886 0.855509
vn 0.581450 -0.271855 0.766819
vn 0.000000 -0.470497 0.882401
vn 0.000000 -0.257564 0.966261
vn 0.000000 -0.257564 0.966261
vn 0.000000 -1.000000 -0.000000
vn 0.000000 -1.000000 -0.000000
vn 0.000000 -0.826452 0.563007
vn 0.000000 -0.826453 0.563007
vn 0.000000 -0.257564 0.966261
vn 0.683085 0.730339 -0.000000
vn 1.000000 0.000000 -0.000000
vn 1.000000 0.000000 -0.000000
vn 0.000000 -1.000000 -0.000001
vn 0.000001 -1.000000 -0.000001
vn 0.000001 -1.000000 -0.000001
vn 0.000000 -1.000000 -0.000001
vn 0.000000 -1.000000 -0.000001
vn 0.000001 -1.000000 -0.000002
vn 0.000000 -1.000000 -0.000001
vn 0.000001 -1.000000 -0.000001
vn 0.000000 -1.000000 -0.000001
vn 0.000000 -1.000000 -0.000001
vn 0.000000 -1.000000 0.000000
vn 0.000000 -1.000000 0.000000
vn 0.000000 -1.000000 -0.000002
vn 0.000000 -1.000000 -0.000002
vn 0.000001 -1.000000 0.000000
vn 0.000000 -1.000000 -0.000001
vn 0.000001 -1.000000 -0.000001
vn 0.000000 -1.000000 -0.000000
vn 0.000001 -1.000000 0.000000
vn 0.000001 -1.000000 0.000000
vn 0.000000 -1.000000 -0.000001
vn 0.000001 -1.000000 -0.000001
vn 0.000001 -1.000000 -0.000000
vn 0.000000 -1.000000 -0.000001
vn 0.683085 0.730339 -0.000000
vn 0.000000 1.000000 0.000000
vn 0.000000 1.000000 0.000000
s 1
g pPlane3
usemtl initialShadingGroup
f 141/257/1 142/258/2 7/8/3 6/7/4
s 2
f 7/8/5 2/2/6 6/7/7
f 4/5/8 2/2/6 7/8/5
s 3
f 9/10/9 10/11/10 17/12/11 16/13/12
f 10/11/10 11/14/13 18/15/14 17/12/11
f 11/14/13 12/16/15 19/17/16 18/15/14
f 12/16/15 13/18/17 20/19/18 19/17/16
f 13/18/17 14/20/19 21/21/20 20/19/18
f 14/20/19 15/81/21 22/22/22 21/21/20
f 16/13/12 17/12/11 24/23/23 23/24/24
f 17/12/11 18/15/14 25/25/25 24/23/23
f 18/15/14 19/17/16 26/26/26 25/25/25
f 19/17/16 20/19/18 27/27/27 26/26/26
f 20/19/18 21/21/20 28/28/28 27/27/27
f 21/21/20 22/22/22 29/29/29 28/28/28
f 23/24/24 24/23/23 31/30/30 30/31/31
f 24/23/23 25/25/25 32/32/32 31/30/30
f 25/25/25 26/26/26 33/33/33 32/32/32
f 26/26/26 27/27/27 34/34/34 33/33/33
f 27/27/27 28/28/28 35/35/35 34/34/34
f 28/28/28 29/29/29 36/36/36 35/35/35
f 30/31/31 31/30/30 38/37/37 37/38/38
f 31/30/30 32/32/32 39/39/39 38/37/37
f 32/32/32 33/33/33 40/40/40 39/39/39
f 33/33/33 34/34/34 41/41/41 40/40/40
f 34/34/34 35/35/35 42/42/42 41/41/41
f 35/35/35 36/36/36 43/43/43 42/42/42
f 37/38/38 38/37/37 45/44/44 44/45/45
f 38/37/37 39/39/39 46/46/46 45/44/44
f 39/39/39 40/40/40 47/47/47 46/46/46
f 40/40/40 41/41/41 48/48/48 47/47/47
f 41/41/41 42/42/42 49/49/49 48/48/48
f 42/42/42 43/43/43 50/50/50 49/49/49
f 44/45/45 45/44/44 52/51/51 51/52/52
f 45/44/44 46/46/46 1/53/53 52/51/51
f 46/46/46 47/47/47 53/54/54 1/53/53
f 47/47/47 48/48/48 2/55/55 53/54/54
f 48/48/48 49/49/49 54/56/56 2/55/55
f 49/49/49 50/50/50 55/57/57 54/56/56
s 4
f 10/60/58 9/61/59 78/172/60 81/62/61
f 9/10/59 16/63/62 84/174/63 78/64/60
f 11/65/64 10/66/58 81/173/61 87/67/65
f 12/68/66 11/69/64 87/175/65 90/70/67
f 13/71/68 12/72/66 90/176/67 93/73/69
f 14/74/70 13/75/68 93/177/69 96/76/71
f 15/77/72 14/78/70 96/178/71 99/79/73
f 22/80/74 15/81/72 99/179/73 102/82/75
f 16/83/62 23/84/76 105/181/77 84/85/63
f 29/86/78 22/87/74 102/180/75 108/88/79
f 23/89/76 30/90/80 111/183/81 105/91/77
f 36/92/82 29/93/78 108/182/79 114/94/83
f 30/95/80 37/96/84 117/185/85 111/97/81
f 43/98/86 36/99/82 114/184/83 120/100/87
f 37/101/84 44/102/88 123/187/89 117/103/85
f 50/104/90 43/105/86 120/186/87 126/106/91
f 44/107/88 51/108/92 129/189/93 123/109/89
f 55/110/94 50/111/90 126/188/91 132/112/95
f 51/113/92 52/114/96 135/191/97 129/115/93
f 52/116/96 1/117/98 5/118/99 135/119/97
f 2/120/100 54/121/101 138/122/102 6/123/103
f 54/124/101 55/125/94 132/190/95 138/126/102
s 5
f 5/127/104 141/256/105 143/259/106 135/129/107
s 6
f 83/170/108 80/130/109 57/131/110 58/171/111
f 80/130/109 86/132/112 59/133/113 57/131/110
f 86/132/112 107/134/114 60/135/115 59/133/113
f 107/134/114 113/136/116 61/137/117 60/135/115
f 113/136/116 119/138/118 62/139/119 61/137/117
f 119/138/118 125/140/120 63/141/121 62/139/119
f 125/140/120 131/142/122 64/143/123 63/141/121
f 131/142/122 137/144/124 65/145/125 64/143/123
f 137/144/124 145/262/126 146/263/127 65/145/125
f 140/146/128 134/148/129 67/149/130 66/147/131
f 134/148/129 128/150/132 68/151/133 67/149/130
f 128/150/132 122/152/134 69/153/135 68/151/133
f 122/152/134 116/154/136 70/155/137 69/153/135
f 116/154/136 110/156/138 71/157/139 70/155/137
f 110/156/138 104/158/140 72/159/141 71/157/139
f 104/158/140 101/160/142 73/161/143 72/159/141
f 101/160/142 98/162/144 74/163/145 73/161/143
f 98/162/144 95/164/146 75/165/147 74/163/145
f 95/164/146 92/166/148 76/167/149 75/165/147
f 92/166/148 89/168/150 77/169/151 76/167/149
f 89/168/150 83/170/108 58/171/111 77/169/151
s 4
f 78/172/60 79/195/152 82/198/153 81/62/61
s 6
f 79/194/154 80/130/109 83/170/108 82/196/155
s 4
f 81/173/61 82/197/153 88/204/156 87/67/65
s 6
f 82/196/155 83/170/108 89/168/150 88/202/157
f 80/130/109 79/194/154 85/200/158 86/132/112
s 4
f 79/193/152 78/64/60 84/174/63 85/201/159
f 87/175/65 88/203/156 91/207/160 90/70/67
s 6
f 88/202/157 89/168/150 92/166/148 91/205/161
s 4
f 90/176/67 91/206/160 94/210/162 93/73/69
s 6
f 91/205/161 92/166/148 95/164/146 94/208/163
s 4
f 93/177/69 94/209/162 97/213/164 96/76/71
s 6
f 94/208/163 95/164/146 98/162/144 97/211/165
s 4
f 96/178/71 97/212/164 100/216/166 99/79/73
s 6
f 97/211/165 98/162/144 101/160/142 100/214/167
s 4
f 99/179/73 100/215/166 103/219/168 102/82/75
s 6
f 100/214/167 101/160/142 104/158/140 103/217/169
s 4
f 102/180/75 103/218/168 109/225/170 108/88/79
s 6
f 103/217/169 104/158/140 110/156/138 109/223/171
f 86/132/112 85/200/158 106/221/172 107/134/114
s 4
f 85/199/159 84/85/63 105/181/77 106/222/173
f 108/182/79 109/224/170 115/231/174 114/94/83
s 6
f 109/223/171 110/156/138 116/154/136 115/229/175
f 107/134/114 106/221/172 112/227/176 113/136/116
s 4
f 106/220/173 105/91/77 111/183/81 112/228/177
f 114/184/83 115/230/174 121/237/178 120/100/87
s 6
f 115/229/175 116/154/136 122/152/134 121/235/179
f 113/136/116 112/227/176 118/233/180 119/138/118
s 4
f 112/226/177 111/97/81 117/185/85 118/234/181
f 120/186/87 121/236/178 127/243/182 126/106/91
s 6
f 121/235/179 122/152/134 128/150/132 127/241/183
f 119/138/118 118/233/180 124/239/184 125/140/120
s 4
f 118/232/181 117/103/85 123/187/89 124/240/185
f 126/188/91 127/242/182 133/249/186 132/112/95
s 6
f 127/241/183 128/150/132 134/148/129 133/247/187
f 125/140/120 124/239/184 130/245/188 131/142/122
s 4
f 124/238/185 123/109/89 129/189/93 130/246/189
f 132/190/95 133/248/186 139/255/190 138/126/102
s 6
f 133/247/187 134/148/129 140/146/128 139/253/191
f 131/142/122 130/245/188 136/251/192 137/144/124
s 4
f 130/244/189 129/115/93 135/191/97 136/252/193
s 6
f 137/144/124 136/251/192 144/260/194 145/262/126
f 136/250/192 135/129/195 143/259/196 144/261/194
s 1
f 5/6/197 8/9/198 142/258/2 141/257/1
s 5
f 143/259/106 141/256/105 6/128/199 138/192/200
s 6
f 144/261/194 143/259/196 138/192/201 139/254/191
f 145/262/126 144/260/194 139/253/191 140/146/128
f 146/263/127 145/262/126 140/146/128 66/147/131
s 2
f 1/1/202 8/9/203 5/6/204
s 9
f 147/264/205 65/145/206 146/263/207
f 71/157/208 148/265/209 147/264/205 70/155/210
f 77/169/211 147/264/205 76/167/212
f 147/264/205 64/143/213 65/145/206
f 147/264/205 63/141/214 64/143/213
f 147/264/205 62/139/215 63/141/214
f 147/264/205 61/137/216 62/139/215
f 147/264/205 60/135/217 61/137/216
f 147/264/205 59/133/218 60/135/217
f 147/264/205 57/131/219 59/133/218
f 58/171/220 57/131/219 147/264/205
f 58/171/220 147/264/205 77/169/211
f 76/167/212 147/264/205 75/165/221
f 75/165/221 147/264/205 74/163/222
f 73/161/223 147/264/205 72/159/224
f 72/159/224 147/264/205 148/265/209 71/157/208
f 66/147/225 147/264/205 146/263/207
f 70/155/210 147/264/205 69/153/226
f 69/153/226 147/264/205 68/151/227
f 68/151/227 147/264/205 67/149/228
f 67/149/228 147/264/205 66/147/225
f 74/163/222 147/264/205 73/161/223
s 2
f 1/4/202 3/3/229 8/9/203
f 53/58/230 56/59/231 3/3/229 1/4/202
f 4/5/8 56/59/231 53/58/230 2/2/6
